<svg width="280" height="280" viewBox="0 0 280 280" fill="none" xmlns="http://www.w3.org/2000/svg">
<circle cx="140" cy="140" r="134" fill="#FCBE2A" stroke="#E57F32" stroke-width="12"/>
<line x1="110" y1="196" x2="170" y2="196" stroke="#47270A" stroke-width="8"/>
<path d="M115 137C115 154.987 99.5747 170 80 170C60.4253 170 45 154.987 45 137C45 119.013 60.4253 104 80 104C99.5747 104 115 119.013 115 137Z" fill="white" stroke="#47270A" stroke-width="10"/>
<circle cx="80" cy="137" r="8" fill="#47270A"/>
<path d="M38 104H77C83.1355 104 89 104 100.5 104C121.5 104 127 83.5 115 73" stroke="#47270A" stroke-width="10"/>
<path d="M158 104H197C203.136 104 209 104 220.5 104C241.5 104 247 83.5 235 73" stroke="#47270A" stroke-width="10"/>
<path d="M235 137C235 154.987 219.575 170 200 170C180.425 170 165 154.987 165 137C165 119.013 180.425 104 200 104C219.575 104 235 119.013 235 137Z" fill="white" stroke="#47270A" stroke-width="10"/>
<circle cx="200" cy="137" r="8" fill="#47270A"/>
</svg>
